<svg xmlns="http://www.w3.org/2000/svg" viewBox="0 0 48 48" id="Brain"><path style="line-height:normal;text-indent:0;text-align:start;text-decoration-line:none;text-decoration-style:solid;text-decoration-color:#000;text-transform:none;block-progression:tb;isolation:auto;mix-blend-mode:normal" fill-rule="evenodd" d="M24 0C10.751 0 0 10.751 0 24s10.751 24 24 24 24-10.751 24-24S37.249 0 24 0zm0 1c12.708 0 23 10.291 23 23S36.708 47 24 47 1 36.709 1 24 11.292 1 24 1zm-4 10.998c-1.958 0-3.614 1.267-4.23 3.018a4.496 4.496 0 0 0-3.922 2.75 4.485 4.485 0 0 0-.282 2.447 5.497 5.497 0 0 0-1.962 5.348 5.498 5.498 0 0 0 1.96 3.23 4.495 4.495 0 0 0 1.319 3.953 4.495 4.495 0 0 0 2.888 1.238c.7 1.99 2.696 3.258 4.817 2.979 1.515-.2 2.758-1.152 3.412-2.441.654 1.289 1.897 2.242 3.412 2.44 2.12.28 4.118-.988 4.817-2.978a4.496 4.496 0 0 0 2.888-1.238 4.495 4.495 0 0 0 1.319-3.953 5.498 5.498 0 0 0 1.96-3.23 5.497 5.497 0 0 0-1.962-5.348c.13-.81.048-1.657-.282-2.447a4.497 4.497 0 0 0-3.922-2.75c-.616-1.751-2.272-3.018-4.23-3.018-1.75 0-3.256 1.016-4 2.48-.744-1.464-2.25-2.48-4-2.48zm0 1c1.939 0 3.5 1.561 3.5 3.5a.5.5 0 0 0 0 .033v15.967a3.495 3.495 0 0 1-6.691 1.418c.118-.022.237-.04.355-.07a.5.5 0 0 0-.258-.967 3.507 3.507 0 0 1-3.33-.856 3.494 3.494 0 0 1-1.066-2.636c.338.172.69.325 1.066.425a.5.5 0 0 0 .26-.966 4.492 4.492 0 0 1-1.959-7.578c.221.516.529 1.001.941 1.414a.5.5 0 1 0 .707-.707 3.499 3.499 0 0 1 2.022-5.946c-.017.156-.047.309-.047.469a.5.5 0 1 0 1 0c0-1.939 1.561-3.5 3.5-3.5zm8 0c1.939 0 3.5 1.561 3.5 3.5a.5.5 0 1 0 1 0c0-.16-.03-.313-.047-.469a3.497 3.497 0 0 1 2.022 5.946.5.5 0 1 0 .707.707c.412-.413.72-.898.941-1.414a4.492 4.492 0 0 1-1.959 7.578.5.5 0 0 0 .26.966c.376-.1.728-.253 1.066-.425a3.494 3.494 0 0 1-1.066 2.636 3.507 3.507 0 0 1-3.33.856.5.5 0 0 0-.258.967c.118.032.237.049.355.07a3.495 3.495 0 0 1-6.691-1.418v-16c0-1.939 1.561-3.5 3.5-3.5zm-8.05 1a.5.5 0 0 0 .05 1c.834 0 1.5.666 1.5 1.5a.5.5 0 1 0 1 0c0-1.375-1.125-2.5-2.5-2.5a.5.5 0 0 0-.05 0zm8.05 0a2.508 2.508 0 0 0-2.5 2.5.5.5 0 1 0 1 0c0-.834.666-1.5 1.5-1.5a.5.5 0 1 0 0-1zm-11.707 3.838v.012a.5.5 0 0 0-.479.66c.104.312.252.602.418.88a5.505 5.505 0 0 0-1.732.028.5.5 0 0 0 .18.984 4.487 4.487 0 0 1 3.064.528.5.5 0 0 0 .027.015.5.5 0 0 0 .01 0 .5.5 0 0 0 .028.016.5.5 0 0 0 .011 0 .5.5 0 0 0 .041.014.5.5 0 0 0 .008 0 .5.5 0 0 0 .035.01.5.5 0 0 0 .063.01.5.5 0 0 0 .183-.024.5.5 0 0 0 .014 0 .5.5 0 0 0 .078-.035.5.5 0 0 0 .012-.01.5.5 0 0 0 .07-.051.5.5 0 0 0 .012-.01.5.5 0 0 0 .025-.025.5.5 0 0 0 .01-.01.5.5 0 0 0 .05-.068.5.5 0 0 0 .009-.012.5.5 0 0 0 .017-.031.5.5 0 0 0 .006-.012.5.5 0 0 0 .03-.082.5.5 0 0 0 .003-.012.5.5 0 0 0 .008-.037.5.5 0 0 0 .002-.013.5.5 0 0 0 .004-.086.5.5 0 0 0 0-.014.5.5 0 0 0-.004-.037.5.5 0 0 0-.002-.014.5.5 0 0 0-.04-.13.5.5 0 0 0-.007-.012.5.5 0 0 0-.017-.034.5.5 0 0 0-.006-.01.5.5 0 0 0-.022-.03.5.5 0 0 0-.007-.01.5.5 0 0 0-.024-.03.5.5 0 0 0-.008-.01.5.5 0 0 0-.027-.023.5.5 0 0 0-.01-.012.5.5 0 0 0-.03-.023.5.5 0 0 0-.009-.01.5.5 0 0 0-.031-.02 3.497 3.497 0 0 1-1.492-1.876.5.5 0 0 0-.471-.344zm15.414.012a.5.5 0 0 0-.47.343 3.497 3.497 0 0 1-1.493 1.877.5.5 0 0 0-.014.01.5.5 0 0 0-.017.012.5.5 0 0 0-.01.01.5.5 0 0 0-.03.023.5.5 0 0 0-.017.016.5.5 0 0 0-.02.017.5.5 0 0 0-.007.01.5.5 0 0 0-.024.03.5.5 0 0 0-.02.027.5.5 0 0 0-.01.02.5.5 0 0 0-.016.025.5.5 0 0 0-.008.017.5.5 0 0 0-.006.01.5.5 0 0 0-.04.133.5.5 0 0 0-.001.02.5.5 0 0 0-.004.023.5.5 0 0 0 0 .013.5.5 0 0 0 .006.094.5.5 0 0 0 .004.02.5.5 0 0 0 .004.023.5.5 0 0 0 .004.012.5.5 0 0 0 .033.09.5.5 0 0 0 .01.015.5.5 0 0 0 .01.022.5.5 0 0 0 .007.011.5.5 0 0 0 .05.069.5.5 0 0 0 .01.01.5.5 0 0 0 .026.023.5.5 0 0 0 .012.012.5.5 0 0 0 .07.05.5.5 0 0 0 .012.01.5.5 0 0 0 .094.04.5.5 0 0 0 .181.023.5.5 0 0 0 .063-.01.5.5 0 0 0 .035-.01.5.5 0 0 0 .014 0 .5.5 0 0 0 .035-.011.5.5 0 0 0 .011 0 .5.5 0 0 0 .034-.018.5.5 0 0 0 .011-.01.5.5 0 0 0 .02-.012h.008a.5.5 0 0 0 .004 0 4.501 4.501 0 0 1 3.052-.521.508.508 0 0 0 .18-1 5.487 5.487 0 0 0-1.732-.025c.166-.279.314-.569.418-.881a.5.5 0 0 0-.479-.66v-.002zm-11.2 1.894a.5.5 0 0 0-.41.756 2.998 2.998 0 0 1-.476 3.623.5.5 0 1 0 .707.707 4.007 4.007 0 0 0 .637-4.83.5.5 0 0 0-.457-.256zm6.934 0a.5.5 0 0 0-.406.256 4.007 4.007 0 0 0 .637 4.83.5.5 0 1 0 .707-.707 2.998 2.998 0 0 1-.477-3.623.5.5 0 0 0-.41-.756.5.5 0 0 0-.05 0zM12.13 24.395v.001a.5.5 0 0 0-.05 0 .5.5 0 0 0-.442.635 4.006 4.006 0 0 0 1.035 1.795.5.5 0 1 0 .707-.707 3.004 3.004 0 0 1-.777-1.346.5.5 0 0 0-.473-.378zm23.742.001a.5.5 0 0 0-.473.38 3.004 3.004 0 0 1-.777 1.345.5.5 0 1 0 .707.707 4.006 4.006 0 0 0 1.035-1.795.5.5 0 0 0-.441-.635.5.5 0 0 0-.05 0v-.002zm-16.867 4.598v.004a.5.5 0 0 0-.135.02.5.5 0 0 0-.002 0 .5.5 0 0 0-.012 0 .5.5 0 0 0-.035.011.5.5 0 0 0-.072.035.5.5 0 0 0-.004 0 4.501 4.501 0 0 1-3.064.528.504.504 0 1 0-.18.99c.577.106 1.16.103 1.732.025-.166.279-.314.571-.418.883a.5.5 0 1 0 .95.317c.259-.778.783-1.44 1.48-1.871a.5.5 0 0 0 .008-.01h.004a.5.5 0 0 0 .031-.02.5.5 0 0 0 .01-.01.5.5 0 0 0 .03-.023.5.5 0 0 0 .009-.01.5.5 0 0 0 .027-.025.5.5 0 0 0 .002 0 .5.5 0 0 0-.361-.844zm9.97.004a.5.5 0 0 0-.34.844.5.5 0 0 1 .003 0 .5.5 0 0 0 .01.01.5.5 0 0 0 .056.05.5.5 0 0 0 .045.028 3.502 3.502 0 0 1 1.488 1.877.5.5 0 1 0 .95-.317 4.49 4.49 0 0 0-.418-.883 5.504 5.504 0 0 0 1.732-.023.501.501 0 1 0-.18-.986 4.487 4.487 0 0 1-3.064-.528.5.5 0 0 0-.004 0 .5.5 0 0 0-.072-.035.5.5 0 0 0-.035-.012.5.5 0 0 0-.014 0 .5.5 0 0 1-.002 0 .5.5 0 0 0-.096-.017.5.5 0 0 0-.058 0v-.008zm-6.982 2.994a.5.5 0 0 0-.492.506c0 .834-.666 1.5-1.5 1.5a.5.5 0 1 0 0 1c1.375 0 2.5-1.125 2.5-2.5a.5.5 0 0 0-.508-.506zm3.967 0a.5.5 0 0 0-.459.506c0 1.375 1.125 2.5 2.5 2.5a.5.5 0 1 0 0-1c-.834 0-1.5-.666-1.5-1.5a.5.5 0 0 0-.492-.506.5.5 0 0 0-.049 0z" color="#000" font-family="sans-serif" font-weight="400" overflow="visible" fill="#d85b53" class="color000000 svgShape"></path></svg>