<svg xmlns="http://www.w3.org/2000/svg" xmlns:xlink="http://www.w3.org/1999/xlink" width="32" height="32" id="brain"><defs><linearGradient id="a"><stop offset="0" stop-color="#000092"></stop><stop offset="1" stop-color="#ff00f3"></stop></linearGradient><linearGradient id="b" x1="1.001" x2="28" y1="16.469" y2="16.469" gradientUnits="userSpaceOnUse" xlink:href="#a"></linearGradient></defs><path style="line-height:normal;text-indent:0;text-align:start;text-decoration-line:none;text-decoration-style:solid;text-decoration-color:#000;text-transform:none;block-progression:tb;isolation:auto;mix-blend-mode:normal" fill="url(#b)" fill-rule="evenodd" d="M11.5 3.969c-1.958 0-3.614 1.266-4.23 3.017a4.497 4.497 0 0 0-3.922 2.75 4.485 4.485 0 0 0-.282 2.448 5.498 5.498 0 0 0-1.962 5.347 5.498 5.498 0 0 0 1.96 3.23 4.495 4.495 0 0 0 1.319 3.954 4.496 4.496 0 0 0 2.888 1.238c.7 1.99 2.696 3.258 4.817 2.979 1.515-.2 2.758-1.153 3.412-2.442.654 1.29 1.897 2.242 3.412 2.442 2.12.279 4.118-.99 4.817-2.979a4.496 4.496 0 0 0 2.888-1.238 4.495 4.495 0 0 0 1.319-3.953 5.498 5.498 0 0 0 1.96-3.23 5.498 5.498 0 0 0-1.962-5.348c.13-.811.048-1.657-.282-2.448a4.497 4.497 0 0 0-3.922-2.75c-.616-1.75-2.272-3.017-4.23-3.017-1.75 0-3.256 1.016-4 2.48-.744-1.464-2.25-2.48-4-2.48zm0 1c1.939 0 3.5 1.56 3.5 3.5a.5.5 0 0 0 0 .033v15.967a3.495 3.495 0 0 1-6.691 1.418c.118-.022.237-.04.355-.07a.5.5 0 0 0-.258-.967 3.507 3.507 0 0 1-3.33-.856 3.494 3.494 0 0 1-1.066-2.637c.338.173.69.325 1.066.426a.5.5 0 0 0 .26-.967 4.492 4.492 0 0 1-1.959-7.578c.221.517.529 1.002.941 1.414a.5.5 0 1 0 .707-.707A3.499 3.499 0 0 1 7.047 8C7.03 8.156 7 8.308 7 8.469a.5.5 0 1 0 1 0c0-1.94 1.561-3.5 3.5-3.5zm8 0c1.939 0 3.5 1.56 3.5 3.5a.5.5 0 1 0 1 0c0-.16-.03-.313-.047-.469a3.497 3.497 0 0 1 2.022 5.945.5.5 0 1 0 .707.707c.412-.412.72-.897.941-1.414a4.492 4.492 0 0 1-1.959 7.578.5.5 0 0 0 .26.967c.376-.1.728-.253 1.066-.426a3.494 3.494 0 0 1-1.066 2.637 3.507 3.507 0 0 1-3.33.856.5.5 0 0 0-.258.966c.118.032.237.049.355.07A3.495 3.495 0 0 1 16 24.469v-16c0-1.938 1.561-3.5 3.5-3.5zm-8.05 1a.5.5 0 0 0 .05 1c.834 0 1.5.665 1.5 1.5a.5.5 0 1 0 1 0c0-1.375-1.125-2.5-2.5-2.5a.5.5 0 0 0-.05 0zm8.05 0a2.508 2.508 0 0 0-2.5 2.5.5.5 0 1 0 1 0c0-.835.666-1.5 1.5-1.5a.5.5 0 1 0 0-1zM7.793 9.819a.5.5 0 0 0-.479.66c.104.312.252.602.418.88A5.497 5.497 0 0 0 6 11.387a.5.5 0 0 0 .18.984 4.501 4.501 0 0 1 3.064.527.5.5 0 0 0 .027.016.5.5 0 0 0 .01.004.5.5 0 0 0 .028.014.5.5 0 0 0 .011.004.5.5 0 0 0 .041.013.5.5 0 0 0 .008.002.5.5 0 0 0 .035.008.5.5 0 0 0 .063.01.5.5 0 0 0 .183-.024.5.5 0 0 0 .014-.004.5.5 0 0 0 .078-.035.5.5 0 0 0 .012-.006.5.5 0 0 0 .07-.05.5.5 0 0 0 .012-.01.5.5 0 0 0 .025-.026.5.5 0 0 0 .01-.01.5.5 0 0 0 .05-.068.5.5 0 0 0 .009-.011.5.5 0 0 0 .017-.032.5.5 0 0 0 .006-.011.5.5 0 0 0 .03-.082.5.5 0 0 0 .003-.012.5.5 0 0 0 .008-.037.5.5 0 0 0 .002-.014.5.5 0 0 0 .004-.086.5.5 0 0 0 0-.014.5.5 0 0 0-.004-.037.5.5 0 0 0-.002-.011.5.5 0 0 0-.04-.131.5.5 0 0 0-.007-.012.5.5 0 0 0-.017-.033.5.5 0 0 0-.006-.01.5.5 0 0 0-.022-.031.5.5 0 0 0-.007-.01.5.5 0 0 0-.024-.03.5.5 0 0 0-.008-.009.5.5 0 0 0-.027-.025.5.5 0 0 0-.01-.008.5.5 0 0 0-.03-.024.5.5 0 0 0-.009-.007.5.5 0 0 0-.031-.02 3.497 3.497 0 0 1-1.492-1.877.5.5 0 0 0-.471-.344zm15.414 0a.5.5 0 0 0-.47.343 3.497 3.497 0 0 1-1.493 1.877.5.5 0 0 0-.014.01.5.5 0 0 0-.017.01.5.5 0 0 0-.01.007.5.5 0 0 0-.03.024.5.5 0 0 0-.017.015.5.5 0 0 0-.02.018.5.5 0 0 0-.007.01.5.5 0 0 0-.024.03.5.5 0 0 0-.02.026.5.5 0 0 0-.01.02.5.5 0 0 0-.016.025.5.5 0 0 0-.008.018.5.5 0 0 0-.006.01.5.5 0 0 0-.04.133.5.5 0 0 0-.001.02.5.5 0 0 0-.004.023.5.5 0 0 0 0 .013.5.5 0 0 0 .006.094.5.5 0 0 0 .004.02.5.5 0 0 0 .004.023.5.5 0 0 0 .004.012.5.5 0 0 0 .033.09.5.5 0 0 0 .01.015.5.5 0 0 0 .01.02.5.5 0 0 0 .007.011.5.5 0 0 0 .05.069.5.5 0 0 0 .01.01.5.5 0 0 0 .026.025.5.5 0 0 0 .012.01.5.5 0 0 0 .07.05.5.5 0 0 0 .012.006.5.5 0 0 0 .094.04.5.5 0 0 0 .181.023.5.5 0 0 0 .063-.01.5.5 0 0 0 .035-.008.5.5 0 0 0 .014-.004.5.5 0 0 0 .035-.011.5.5 0 0 0 .011-.004.5.5 0 0 0 .034-.016.5.5 0 0 0 .011-.006.5.5 0 0 0 .02-.012l.008-.003a.5.5 0 0 0 .004-.002 4.5 4.5 0 0 1 3.052-.522.5.5 0 1 0 .18-.984 5.497 5.497 0 0 0-1.732-.028c.166-.278.314-.568.418-.88a.5.5 0 0 0-.479-.66zm-11.2 1.894a.5.5 0 0 0-.41.756 2.998 2.998 0 0 1-.476 3.623.5.5 0 1 0 .707.707 4.007 4.007 0 0 0 .637-4.83.5.5 0 0 0-.457-.256zm6.934 0a.5.5 0 0 0-.406.256 4.007 4.007 0 0 0 .637 4.83.5.5 0 1 0 .707-.707 2.998 2.998 0 0 1-.477-3.623.5.5 0 0 0-.41-.756.5.5 0 0 0-.05 0zM3.63 16.367a.5.5 0 0 0-.05.002.5.5 0 0 0-.442.635 4.006 4.006 0 0 0 1.035 1.795.5.5 0 1 0 .707-.707 3.004 3.004 0 0 1-.777-1.346.5.5 0 0 0-.473-.379zm23.742 0a.5.5 0 0 0-.473.38 3.004 3.004 0 0 1-.777 1.345.5.5 0 1 0 .707.707 4.006 4.006 0 0 0 1.035-1.795.5.5 0 0 0-.441-.635.5.5 0 0 0-.05-.002zM10.504 20.97a.5.5 0 0 0-.135.017.5.5 0 0 0-.002 0 .5.5 0 0 0-.012.004.5.5 0 0 0-.035.012.5.5 0 0 0-.072.035.5.5 0 0 0-.004.002 4.501 4.501 0 0 1-3.064.527.5.5 0 0 0-.18.987c.577.106 1.16.102 1.732.025a4.49 4.49 0 0 0-.418.883.5.5 0 1 0 .95.316c.259-.777.783-1.44 1.48-1.87a.5.5 0 0 0 .008-.007c.001 0 .003 0 .004-.002a.5.5 0 0 0 .031-.02.5.5 0 0 0 .01-.007.5.5 0 0 0 .03-.023.5.5 0 0 0 .009-.008.5.5 0 0 0 .027-.026.5.5 0 0 0 .002-.002.5.5 0 0 0-.361-.843zm9.97 0a.5.5 0 0 0-.34.843.5.5 0 0 1 .003.002.5.5 0 0 0 .01.008.5.5 0 0 0 .056.05.5.5 0 0 0 .045.028 3.502 3.502 0 0 1 1.488 1.877.5.5 0 1 0 .95-.316 4.49 4.49 0 0 0-.418-.883c.572.077 1.155.08 1.732-.025a.5.5 0 0 0-.18-.987 4.501 4.501 0 0 1-3.064-.527.5.5 0 0 0-.004-.002.5.5 0 0 0-.072-.035.5.5 0 0 0-.035-.012.5.5 0 0 0-.014-.004.5.5 0 0 1-.002 0 .5.5 0 0 0-.096-.015.5.5 0 0 0-.058-.002zm-6.982 2.994a.5.5 0 0 0-.492.506c0 .834-.666 1.5-1.5 1.5a.5.5 0 1 0 0 1c1.375 0 2.5-1.125 2.5-2.5a.5.5 0 0 0-.508-.506zm3.967 0a.5.5 0 0 0-.459.506c0 1.375 1.125 2.5 2.5 2.5a.5.5 0 1 0 0-1c-.834 0-1.5-.666-1.5-1.5a.5.5 0 0 0-.492-.506.5.5 0 0 0-.049 0z" color="#000" font-family="sans-serif" font-weight="400" overflow="visible"></path></svg>