<svg xmlns="http://www.w3.org/2000/svg" xmlns:xlink="http://www.w3.org/1999/xlink" version="1.1" x="0px" y="0px" viewBox="0 0 50 62.5" style="enable-background:new 0 0 50 50;" xml:space="preserve"><g><path d="M20.8964043,27.3155556c0.0054207,0.8453217-0.6754589,1.5349865-1.5207806,1.5404053   c-0.8453255,0.0054188-1.5349884-0.675457-1.5404072-1.5207825c-0.0054207-0.8453236,0.6754589-1.5349846,1.5207806-1.5404053   c0.0032616-0.000021,0.0065231-0.0000324,0.0097828-0.0000324C20.207304,25.7947254,20.8910084,26.4740486,20.8964043,27.3155556z"/><path d="M31.3360558,20.045084H18.6985817c-4.0609703-0.1098843-7.4427481,3.0918255-7.5550108,7.152729   c0.1175976,4.0585213,3.4961309,7.2571583,7.5550108,7.1527309c2.5075512,0.022686,4.8675461-1.1829605,6.318737-3.2280502   c1.451189,2.0450897,3.8111858,3.2507362,6.318737,3.2280502c4.0588799,0.1044273,7.4374123-3.0942116,7.5550079-7.1527309   C38.778801,23.1369095,35.3970222,19.9351997,31.3360558,20.045084z M19.3657799,29.8567867   c-1.3872261,0-2.511795-1.1245689-2.511797-2.511797c0-1.3872261,1.1245689-2.511795,2.511795-2.511797   c1.387228,0,2.511797,1.1245689,2.511797,2.511795c0,0.0000019,0,0.0000019,0,0.0000019   c-0.0161228,1.3757191-1.1359844,2.4824581-2.511797,2.4823627L19.3657799,29.8567867z M30.6688614,29.8567867   c-1.3872261,0-2.511795-1.1245708-2.511795-2.5117989c0.0000019-1.3872261,1.1245708-2.511795,2.511797-2.511795   c1.387228,0.0000019,2.511797,1.1245708,2.511797,2.511797c-0.0161247,1.3757191-1.1359901,2.4824581-2.5118008,2.4823627   L30.6688614,29.8567867z M30.6688614,25.8241749c-0.8453426,0.0000191-1.530611,0.685318-1.5305939,1.5306587   c0.0000191,0.8453426,0.685318,1.530611,1.5306587,1.530592c0.8453426-0.0000172,1.5306091-0.685318,1.5305901-1.5306568   c0-0.0032597-0.0000076-0.0065193-0.0000267-0.0097809c0.0108337-0.8452721-0.6656094-1.5392838-1.5108795-1.5501213   c-0.0065842-0.0000839-0.0131664-0.0001259-0.0197506-0.0001259L30.6688614,25.8241749z"/><path d="M41.5206032,22.7727375c-2.4788361-6.3375225-8.3645821-10.6984634-15.1492691-11.2245874l0.5690784-1.2657099   c0.0839653-0.1666307,0.0839653-0.3632011,0-0.5298319c-0.0898743-0.1680365-0.2532978-0.2842484-0.4415264-0.3139734   L24.261816,9.0363541l1.2657108-1.72686l0,0c0.2675896,0.0788941,0.545208,0.1185536,0.8241844,0.1177402   c1.734024,0.0054026,3.1441097-1.3959231,3.1495094-3.1299477c0.0054035-1.734025-1.3959217-3.1441092-3.1299458-3.1495113   c-1.734026-0.0054024-3.1441097,1.395923-3.1495132,3.1299477c-0.0029659,0.9523978,0.4265251,1.8546619,1.1676083,2.4528804   l-1.7464828,2.4038677c-0.1359768,0.1729393-0.1661186,0.4065342-0.078495,0.608326   c0.0808487,0.1999731,0.2586746,0.3444567,0.4709625,0.3826561l2.4529247,0.4219036l-0.4415264,0.9811707l0,0   c-7.302639-0.0284319-13.8696489,4.440568-16.5229073,11.2442102c-2.2076325,0-4.1307263,2.3155613-4.2288437,5.2394485   c-0.1391935,1.8965015,0.6780787,3.7372055,2.1781983,4.9058514c-0.3806224,1.0812569-0.2695045,2.2748795,0.3041625,3.2672958   c0.7762275,1.1591225,1.9312401,2.0123749,3.2672968,2.4136772c1.1331291,1.8075256,2.586091,3.3934784,4.287714,4.6801834   l-0.1962347,0.4219017c-0.5457706,1.2161865-1.284647,2.3360977-2.1880093,3.3163567   c-0.3133392,0.2958832-0.3969278,0.7615891-0.2060452,1.1479683c0.2036591,0.367981,0.5657072,0.6214142,0.9811697,0.686821   c2.7081175-0.0796928,6.8583813-2.8061447,6.8583813-2.8061447l0.2158566,0.0686798   c0.4022789,0.1275558,0.8143711,0.2354851,1.2264633,0.3237915c1.3086891,0.3083038,2.6488476,0.4630623,3.9933624,0.4611511   C33.13517,46.8926086,40.2100296,41.370182,42.1877975,33.496933c1.056179-0.1895256,1.9809532-0.8215141,2.5412331-1.7366734   c0.712841-1.1188259,1.0560684-2.4333782,0.9811668-3.7578812C45.5924606,25.0981121,43.7086105,22.7727375,41.5206032,22.7727375z    M26.3615227,2.4428897c1.0349998,0,1.8740349,0.8390341,1.8740349,1.8740354s-0.8390331,1.8740349-1.8740349,1.8740349   c-1.0349998,0-1.8740349-0.8390341-1.8740349-1.8740349l0,0C24.4874878,3.281924,25.3265228,2.4428899,26.3615227,2.4428897z    M5.5705242,28.061245c0.0686822-2.0212116,1.128346-3.6695766,2.4921722-3.9246807   c-0.4985614,1.6479492-0.7498612,3.3607521-0.7456894,5.0824604c-0.0028443,0.9668751,0.0792351,1.9321308,0.2452927,2.8846436   C6.3554606,31.6032696,5.5018425,29.964716,5.5705242,28.061245z M7.886086,35.5770073   c-0.3799891-0.646759-0.4656692-1.4250183-0.2354808-2.1389503H7.846839   c0.2677794,1.1179581,0.6559744,2.2035866,1.1577816,3.2378616C8.5561752,36.3954697,8.174427,36.0204201,7.886086,35.5770073z    M25.0173187,45.6241951c-1.8493023-0.0332832-3.6829586-0.3415756-5.4407902-0.9144249   c-0.112381-0.0366249-0.2289677-0.0139122-0.3134632,0.0687408c-0.7267265,0.7108612-4.4111824,2.8900642-6.0884714,2.8080215   c1.2078266-1.2617455,2.1249352-2.7712097,2.6883907-4.4223785c0.0472412-0.1384354-0.0019197-0.2913246-0.1209459-0.3763504   c-0.3211699-0.2294235-0.8109398-0.599514-0.9288902-0.6860123c-1.0537548-0.8346176-1.9996614-1.7970047-2.815959-2.8650169   c1.8191786,0.3652611,3.6686096,0.5590744,5.5239897,0.5788879c0.2257137,0.4773178,0.7083015,0.779892,1.2362747,0.7751274   H20.00354c0.7613487,0.0642815,1.4306564-0.5008011,1.4949398-1.2621498s-0.5007992-1.4306564-1.2621479-1.4949417   c-0.0774593-0.0065384-1.478878,0-1.478878,0c-0.501009-0.0022278-0.9634953,0.2684937-1.2068405,0.7064438   c-2.2285299-0.0041161-4.4451923-0.3245583-6.5836525-0.9517365l0,0c-1.5193825-2.5341568-2.3198824-5.434269-2.3155613-8.3890038   c0.0091591-8.8272514,6.9860363-16.0726357,15.8066521-16.414978l-0.8241825,1.8053532   c0,0-0.1569881,0.3924685,0.3826561,0.6279497c0.5396423,0.2354813,0.7947464-0.1766109,0.7947464-0.1766109l0.9811707-2.2468796   l0,0C34.8527641,13.2375107,41.8382645,20.9417,41.394989,30.0020237   c-0.4280663,8.7494411-7.6472015,15.6232014-16.4071064,15.6221714H25.0173187z M43.6595535,31.0538139   c-0.2915382,0.4397411-0.708622,0.7816105-1.1970291,0.9811707c0.1664619-0.9524574,0.2485466-1.9177494,0.2452927-2.8846397   c0.0017357-1.714386-0.2461586-3.4198875-0.735878-5.0628395c1.3147697,0.304163,2.3744316,1.9623413,2.4529266,3.9246807   c0.0782738,1.0684414-0.1863976,2.1339874-0.755497,3.0416279H43.6595535z"/><path d="M24.6052265,40.1100121c-1.7139816-0.0268974-3.0830936-1.4355011-3.0612526-3.1495552   c0-0.406414,0.3294659-0.735878,0.735878-0.735878c0.406414,0,0.735878,0.329464,0.735878,0.735878   c-0.0002823,0.8778572,0.7111301,1.5897255,1.5889835,1.5900078c0.8778572,0.0002823,1.5897255-0.7111282,1.5900078-1.5889854   c0-0.0003395,0-0.000679,0-0.0010223c0-0.406414,0.329464-0.735878,0.735878-0.735878s0.735878,0.329464,0.735878,0.735878   C27.6883183,38.674511,26.3192101,40.0831146,24.6052265,40.1100121z"/></g><text x="0" y="65" fill="#000000" font-size="5px" font-weight="bold" font-family="'Helvetica Neue', Helvetica, Arial-Unicode, Arial, Sans-serif">Created by Frühstück</text><text x="0" y="70" fill="#000000" font-size="5px" font-weight="bold" font-family="'Helvetica Neue', Helvetica, Arial-Unicode, Arial, Sans-serif">from the Noun Project</text></svg>